<mxfile host="app.diagrams.net" modified="2024-01-17T12:07:28.376Z" agent="Mozilla/5.0 (Windows NT 10.0; Win64; x64) AppleWebKit/537.36 (KHTML, like Gecko) Chrome/119.0.0.0 Safari/537.36" etag="KGXDTOwGVwRr3Yp0B2gR" version="22.1.20" type="github">
  <diagram name="第 1 页" id="v6WuC6_yMRXJwfPHd7Fp">
    <mxGraphModel dx="1050" dy="557" grid="1" gridSize="10" guides="1" tooltips="1" connect="1" arrows="1" fold="1" page="1" pageScale="1" pageWidth="827" pageHeight="1169" math="0" shadow="0">
      <root>
        <mxCell id="0" />
        <mxCell id="1" parent="0" />
        <mxCell id="W0W4F_Cma30XKI7GQsnF-1" style="edgeStyle=orthogonalEdgeStyle;rounded=0;orthogonalLoop=1;jettySize=auto;html=1;exitX=0.5;exitY=1;exitDx=0;exitDy=0;entryX=0;entryY=0.5;entryDx=0;entryDy=0;" parent="1" source="W0W4F_Cma30XKI7GQsnF-3" target="W0W4F_Cma30XKI7GQsnF-10" edge="1">
          <mxGeometry relative="1" as="geometry" />
        </mxCell>
        <mxCell id="W0W4F_Cma30XKI7GQsnF-2" value="3、各脏腑代谢和利用后多余水份传输到肾" style="edgeLabel;html=1;align=center;verticalAlign=middle;resizable=0;points=[];fontSize=14;" parent="W0W4F_Cma30XKI7GQsnF-1" vertex="1" connectable="0">
          <mxGeometry x="-0.539" y="1" relative="1" as="geometry">
            <mxPoint x="49" as="offset" />
          </mxGeometry>
        </mxCell>
        <mxCell id="W0W4F_Cma30XKI7GQsnF-3" value="各组织" style="rounded=1;whiteSpace=wrap;html=1;fontSize=15;" parent="1" vertex="1">
          <mxGeometry x="163" y="270" width="119" height="52" as="geometry" />
        </mxCell>
        <mxCell id="W0W4F_Cma30XKI7GQsnF-4" style="edgeStyle=orthogonalEdgeStyle;rounded=0;orthogonalLoop=1;jettySize=auto;html=1;exitX=0.5;exitY=0;exitDx=0;exitDy=0;entryX=1;entryY=1;entryDx=0;entryDy=0;" parent="1" source="W0W4F_Cma30XKI7GQsnF-6" target="W0W4F_Cma30XKI7GQsnF-7" edge="1">
          <mxGeometry relative="1" as="geometry" />
        </mxCell>
        <mxCell id="W0W4F_Cma30XKI7GQsnF-5" value="1.水液上输于肺" style="edgeLabel;html=1;align=center;verticalAlign=middle;resizable=0;points=[];fontSize=15;" parent="W0W4F_Cma30XKI7GQsnF-4" vertex="1" connectable="0">
          <mxGeometry x="-0.2994" y="1" relative="1" as="geometry">
            <mxPoint as="offset" />
          </mxGeometry>
        </mxCell>
        <mxCell id="W0W4F_Cma30XKI7GQsnF-6" value="脾" style="ellipse;whiteSpace=wrap;html=1;fontSize=14;fillColor=#f8cecc;strokeColor=#b85450;" parent="1" vertex="1">
          <mxGeometry x="372" y="240" width="80" height="50" as="geometry" />
        </mxCell>
        <mxCell id="W0W4F_Cma30XKI7GQsnF-7" value="肺" style="ellipse;whiteSpace=wrap;html=1;fontSize=14;" parent="1" vertex="1">
          <mxGeometry x="243" y="140" width="80" height="50" as="geometry" />
        </mxCell>
        <mxCell id="W0W4F_Cma30XKI7GQsnF-8" style="edgeStyle=orthogonalEdgeStyle;rounded=0;orthogonalLoop=1;jettySize=auto;html=1;exitX=1;exitY=0.5;exitDx=0;exitDy=0;entryX=0.5;entryY=0;entryDx=0;entryDy=0;" parent="1" source="W0W4F_Cma30XKI7GQsnF-10" target="W0W4F_Cma30XKI7GQsnF-11" edge="1">
          <mxGeometry relative="1" as="geometry" />
        </mxCell>
        <mxCell id="W0W4F_Cma30XKI7GQsnF-9" value="4、肾的气化作用送至膀胱" style="edgeLabel;html=1;align=center;verticalAlign=middle;resizable=0;points=[];fontSize=14;" parent="W0W4F_Cma30XKI7GQsnF-8" vertex="1" connectable="0">
          <mxGeometry x="0.2397" y="-4" relative="1" as="geometry">
            <mxPoint x="16" y="11" as="offset" />
          </mxGeometry>
        </mxCell>
        <mxCell id="W0W4F_Cma30XKI7GQsnF-10" value="肾" style="ellipse;whiteSpace=wrap;html=1;fontSize=14;" parent="1" vertex="1">
          <mxGeometry x="264" y="380" width="80" height="50" as="geometry" />
        </mxCell>
        <mxCell id="W0W4F_Cma30XKI7GQsnF-11" value="膀胱" style="ellipse;whiteSpace=wrap;html=1;fontSize=14;" parent="1" vertex="1">
          <mxGeometry x="403" y="440" width="80" height="50" as="geometry" />
        </mxCell>
        <mxCell id="W0W4F_Cma30XKI7GQsnF-12" value="" style="endArrow=classic;html=1;rounded=0;entryX=0.5;entryY=0;entryDx=0;entryDy=0;exitX=0;exitY=1;exitDx=0;exitDy=0;" parent="1" source="W0W4F_Cma30XKI7GQsnF-7" target="W0W4F_Cma30XKI7GQsnF-3" edge="1">
          <mxGeometry width="50" height="50" relative="1" as="geometry">
            <mxPoint x="172" y="220" as="sourcePoint" />
            <mxPoint x="248" y="329" as="targetPoint" />
          </mxGeometry>
        </mxCell>
        <mxCell id="W0W4F_Cma30XKI7GQsnF-13" value="2.通过肺的宣肃输送给各组织" style="text;html=1;strokeColor=none;fillColor=none;align=center;verticalAlign=middle;whiteSpace=wrap;rounded=0;fontSize=15;" parent="1" vertex="1">
          <mxGeometry x="163" y="230" width="198" height="30" as="geometry" />
        </mxCell>
        <mxCell id="W0W4F_Cma30XKI7GQsnF-14" value="运化水液" style="text;html=1;strokeColor=none;fillColor=none;align=center;verticalAlign=middle;whiteSpace=wrap;rounded=0;fontSize=18;fontStyle=1;fontColor=#0000CC;" parent="1" vertex="1">
          <mxGeometry x="80" y="140" width="100" height="30" as="geometry" />
        </mxCell>
        <mxCell id="W0W4F_Cma30XKI7GQsnF-15" value="&lt;font color=&quot;#ff3333&quot; style=&quot;font-size: 14px;&quot;&gt;运化水液异常&lt;/font&gt;" style="swimlane;fontStyle=0;childLayout=stackLayout;horizontal=1;startSize=30;horizontalStack=0;resizeParent=1;resizeParentMax=0;resizeLast=0;collapsible=1;marginBottom=0;whiteSpace=wrap;html=1;" parent="1" vertex="1">
          <mxGeometry x="510" y="150" width="140" height="60" as="geometry" />
        </mxCell>
        <mxCell id="W0W4F_Cma30XKI7GQsnF-16" value="产生痰湿水饮" style="text;strokeColor=none;fillColor=none;align=left;verticalAlign=middle;spacingLeft=4;spacingRight=4;overflow=hidden;points=[[0,0.5],[1,0.5]];portConstraint=eastwest;rotatable=0;whiteSpace=wrap;html=1;" parent="W0W4F_Cma30XKI7GQsnF-15" vertex="1">
          <mxGeometry y="30" width="140" height="30" as="geometry" />
        </mxCell>
      </root>
    </mxGraphModel>
  </diagram>
</mxfile>
